PathFileType	4	(X/Y/Z)	/Users/niels/Desktop/University/Third Semester/Perception and Action/Exam/Gymnastics Motion Tracking/Code for Gym Tracking/Analyzed Data/Webcam_Backflip/id1_8_trajectory_Sports2D/id1_8_trajectory_Sports2D_px_person00.trc
DataRate	CameraRate	NumFrames	NumMarkers	Units	OrigDataRate	OrigDataStartFrame	OrigNumFrames
29.71698113207547	29.71698113207547	7	22	m	29.71698113207547	0	106
Frame#	Time	Hip			RHip			RKnee			RAnkle			RBigToe			RSmallToe			RHeel			LHip			LKnee			LAnkle			LBigToe			LSmallToe			LHeel			Neck			Head			Nose			RShoulder			RElbow			RWrist			LShoulder			LElbow			LWrist		
		X1	Y1	Z1	X2	Y2	Z2	X3	Y3	Z3	X4	Y4	Z4	X5	Y5	Z5	X6	Y6	Z6	X7	Y7	Z7	X8	Y8	Z8	X9	Y9	Z9	X10	Y10	Z10	X11	Y11	Z11	X12	Y12	Z12	X13	Y13	Z13	X14	Y14	Z14	X15	Y15	Z15	X16	Y16	Z16	X17	Y17	Z17	X18	Y18	Z18	X19	Y19	Z19	X20	Y20	Z20	X21	Y21	Z21	X22	Y22	Z22
0	0.0	0.9326564312893832	-0.6575117417581313	0.0	0.9359087983332439	-0.6591344221604039	0.0	1.0008798449217589	-0.7663216891489758	0.0	0.9472957782863596	-0.8881264811175152	0.0	0.9960125972717825	-0.9076191075512022	0.0	0.987894129200062	-0.9124916089392087	0.0	0.9310523259141305	-0.904377868038924	0.0	0.9359000069862531	-0.6558851385902413	0.0	0.9537835849737604	-0.7663180161780795	0.0	0.9326746564488397	-0.884885183999587	0.0	0.981396166554566	-0.9059908742338495	0.0	0.9716453587228351	-0.9011234185258687	0.0	0.9180553604888952	-0.8995051229482934	0.0	0.960290203887655	-0.4853473683732084	0.0	0.9944047789717518	-0.4057604774996298	0.0	1.0025247072687948	-0.4609839341708962	0.0	0.9424272478245734	-0.5097176174454086	0.0	0.9960398463306854	-0.582781502634719	0.0	1.0723640725976546	-0.5990104086370762	0.0	0.9586722674519438	-0.5015958537976102	0.0	1.0122729918795565	-0.5600542202659949	0.0	1.0772375909180174	-0.5860272695533298	0.0
1	0.033650793650793646	0.9340390585999174	-0.6640591937832037	0.0	0.9372872628187978	-0.6662191919209567	0.0	1.0013328862480286	-0.7723319013935501	0.0	0.9479561252793561	-0.8925939010977932	0.0	0.9952593160907612	-0.9117119317875323	0.0	0.9874310819032383	-0.9158677540581921	0.0	0.9323673758244134	-0.9070364740522052	0.0	0.9368044034522479	-0.6636520279131237	0.0	0.9535160717169721	-0.7750247637684127	0.0	0.9335623239369764	-0.8927992747573424	0.0	0.9856387794351665	-0.9105458115689309	0.0	0.9758271065227617	-0.9052975760865904	0.0	0.9205937059914383	-0.9054620625496536	0.0	0.9586013370549169	-0.4914904784203608	0.0	0.9917208269954605	-0.4132182434874778	0.0	1.0011155104653635	-0.4674411894952568	0.0	0.9424551505892881	-0.5173870343085535	0.0	0.999729351853226	-0.5859544175626828	0.0	1.075666136826798	-0.5967765686947607	0.0	0.9606165816587208	-0.5094420874737914	0.0	1.015803433903183	-0.5626930763107879	0.0	1.0822266574099881	-0.583396898037244	0.0
2	0.06730158730158729	0.9353420778354199	-0.6691199194749514	0.0	0.9387218938090102	-0.6715908745597066	0.0	1.0013906815673244	-0.7769220811587602	0.0	0.9484388536383681	-0.8960458182188586	0.0	0.9946863353215996	-0.9148086246113306	0.0	0.9870738947045814	-0.9183709740412178	0.0	0.9334192924976042	-0.909073787834958	0.0	0.9375862716579908	-0.6695834444687015	0.0	0.9531313073063565	-0.7816478181811989	0.0	0.9342378889091484	-0.8987548198134272	0.0	0.9890417247035527	-0.9138575480508714	0.0	0.9791456137869108	-0.9083561738634258	0.0	0.9225547077682109	-0.9099465838025145	0.0	0.9572277286010568	-0.4960090259241178	0.0	0.9893672890433292	-0.41881604095614167	0.0	0.9997810764265802	-0.4722235945939084	0.0	0.9426872345426428	-0.5229973613328941	0.0	1.0035865063066485	-0.5868260591251739	0.0	1.0792794361240958	-0.5925335235468424	0.0	0.9617894222953269	-0.51535093491958	0.0	1.0185607784528865	-0.5635628861757153	0.0	1.0864964719281789	-0.5792750570474824	0.0
3	0.10095238095238093	0.9365242872176855	-0.671363603203189	0.0	0.9401912952157105	-0.6737896775676318	0.0	1.0007819503202828	-0.7789280381857355	0.0	0.948651488852576	-0.8975406860050751	0.0	0.9944527099768199	-0.9159578885222102	0.0	0.9869522398427751	-0.9191019346495836	0.0	0.9340820003419478	-0.9097660521588231	0.0	0.9381846766273085	-0.6721356053884524	0.0	0.9526544431406508	-0.7846489372418396	0.0	0.9345647021869837	-0.9013179387677043	0.0	0.9912201720822889	-0.9149136570463984	0.0	0.9812448691465419	-0.9093066083721475	0.0	0.9236587909594962	-0.9116989219971766	0.0	0.9563565587708971	-0.49756660551186044	0.0	0.9876194300053055	-0.42112083729838884	0.0	0.9986267798432451	-0.47398099989298564	0.0	0.9432724784857605	-0.5249256821327037	0.0	1.0076985612015847	-0.5835164297675215	0.0	1.0832952409445913	-0.5846581389886562	0.0	0.9617118211022696	-0.5178302649546294	0.0	1.0201479253180306	-0.5613221790136151	0.0	1.0896529515077749	-0.572340664310376	0.0
4	0.13460317460317459	0.9375883762961952	-0.6699147468942831	0.0	0.9416106069390222	-0.6719027453827904	0.0	0.9994511188393864	-0.7776568316849423	0.0	0.9486325356786331	-0.8964230609662399	0.0	0.9946369861943809	-0.9145002623440994	0.0	0.9871542168768	-0.9174100545014772	0.0	0.9344204755862244	-0.9084608625943973	0.0	0.9385669260480692	-0.6703807897092714	0.0	0.9522158771959326	-0.7833440800733711	0.0	0.9345535147289616	-0.8998551169309631	0.0	0.9923147438437331	-0.9131799847227107	0.0	0.9823282341399551	-0.9075125301000617	0.0	0.9240118912746507	-0.9099698911919647	0.0	0.9560280914725152	-0.495443678737945	0.0	0.9866525683982356	-0.4193859027755488	0.0	0.9977788289417349	-0.47194427784257004	0.0	0.9443150114142171	-0.5223562673374649	0.0	1.0120946849930272	-0.5750667070354466	0.0	1.0876550095191395	-0.5723123418174506	0.0	0.9602579698686594	-0.5161484767942278	0.0	1.0206381735330345	-0.5553810087488299	0.0	1.0917654575770375	-0.5617776260859759	0.0
5	0.16825396825396824	0.9385611755171853	-0.6644952064173583	0.0	0.9428573785018763	-0.6656801323803415	0.0	0.9975656464734375	-0.7729275866732619	0.0	0.9485136695129023	-0.8923987332921212	0.0	0.9951868394326748	-0.9102931125038934	0.0	0.9876274470114413	-0.913140746270732	0.0	0.9346127638348137	-0.904748814215426	0.0	0.9387457642574812	-0.664122065235229	0.0	0.9520533467333664	-0.7778251472661041	0.0	0.9344514110264485	-0.8944281633110354	0.0	0.9927047719117427	-0.908653296773216	0.0	0.9828804674952045	-0.9028447504661208	0.0	0.924019202420898	-0.9047015079978232	0.0	0.956193549480798	-0.4896049756119942	0.0	0.9865799310585787	-0.4135220088598636	0.0	0.9973899871473856	-0.46597172483899635	0.0	0.94590529798535	-0.5152982582086598	0.0	1.0168455953667863	-0.5615538188503765	0.0	1.0923292043552706	-0.5554595663406363	0.0	0.957653641171862	-0.5102241741218604	0.0	1.0204825912328668	-0.5457397343013679	0.0	1.0932924753820963	-0.54735252899995	0.0
6	0.20190476190476186	0.9394648026844638	-0.6554541017909777	0.0	0.9438147543931309	-0.6555616101876199	0.0	0.9954131340846101	-0.765100136608039	0.0	0.9484184994111579	-0.8855636248478617	0.0	0.995930622925109	-0.9037540877863851	0.0	0.9881844871452308	-0.9066686318410394	0.0	0.9348185821670895	-0.8986069953987331	0.0	0.9388079310343512	-0.6538885984128036	0.0	0.9525407774283888	-0.7687875832866574	0.0	0.9347004036858285	-0.8856271573217741	0.0	0.9926751820847333	-0.9017778930253896	0.0	0.9833218093080691	-0.8957072929603965	0.0	0.9242085430091398	-0.8965056525019036	0.0	0.9567708829013318	-0.48058658759248996	0.0	0.9874821948060455	-0.4040235843622615	0.0	0.9976425879509423	-0.4565172354469873	0.0	0.9480920284989053	-0.504416235066212	0.0	1.0220276009862366	-0.5439257297850061	0.0	1.0972882810347269	-0.5347695675955463	0.0	0.9544686969588808	-0.5004402309552772	0.0	1.020292605366735	-0.5327272539331647	0.0	1.0948395314302504	-0.5293648869442066	0.0
